<svg width="51" height="78" viewBox="0 0 51 78" fill="none" xmlns="http://www.w3.org/2000/svg">
<mask id="path-1-outside-1_172_79" maskUnits="userSpaceOnUse" x="-1" y="12" width="53" height="54" fill="black">
<rect fill="white" x="-1" y="12" width="53" height="54"/>
<path d="M24.8125 24.1875C24.8542 24.8125 24.7708 25.75 24.5625 27C24.3958 28.25 24.1042 29.5 23.6875 30.75C23.2708 32 22.7292 33.1042 22.0625 34.0625C21.4375 34.9792 20.7083 35.4375 19.875 35.4375C19.4583 35.4375 19.1042 35.1875 18.8125 34.6875C18.5208 34.1875 18.2708 33.5417 18.0625 32.75C17.8542 31.9583 17.6875 31.0833 17.5625 30.125C17.4375 29.125 17.3125 28.1667 17.1875 27.25C17.1042 26.3333 17.0208 25.5 16.9375 24.75C16.8958 23.9583 16.8542 23.375 16.8125 23C16.6458 22.75 16.3333 22.5 15.875 22.25C15.4583 21.9583 15.0833 21.8125 14.75 21.8125C14.375 21.8125 13.9167 22.1667 13.375 22.875C12.875 23.5833 12.3958 24.4167 11.9375 25.375C11.4792 26.3333 11.1042 27.2917 10.8125 28.25C10.5208 29.1667 10.3958 29.875 10.4375 30.375C10.4375 30.7083 10.75 31.2917 11.375 32.125C12.0417 32.9583 12.8542 33.9375 13.8125 35.0625C14.7708 36.1875 15.8125 37.4167 16.9375 38.75C18.0625 40.0417 19.1042 41.3333 20.0625 42.625C21.0208 43.9167 21.8333 45.1458 22.5 46.3125C23.1667 47.4792 23.5208 48.4792 23.5625 49.3125C23.6458 50.3125 23.4167 51.6042 22.875 53.1875C22.375 54.7292 21.7292 56.2292 20.9375 57.6875C20.1458 59.1458 19.2917 60.4167 18.375 61.5C17.5 62.5417 16.7083 63.0833 16 63.125C15.5417 63.1667 14.9375 62.9583 14.1875 62.5C13.4375 62.0833 12.625 61.5208 11.75 60.8125C10.875 60.1042 9.97917 59.3333 9.0625 58.5C8.1875 57.625 7.35417 56.7708 6.5625 55.9375C5.8125 55.1042 5.16667 54.3542 4.625 53.6875C4.125 52.9792 3.83333 52.4583 3.75 52.125C3.58333 51.625 3.47917 50.9583 3.4375 50.125C3.4375 49.25 3.47917 48.4167 3.5625 47.625C3.6875 46.7917 3.83333 46.0833 4 45.5C4.20833 44.875 4.45833 44.5625 4.75 44.5625C4.95833 44.5625 5.29167 44.8333 5.75 45.375C6.25 45.9167 6.8125 46.6042 7.4375 47.4375C8.0625 48.2708 8.72917 49.1875 9.4375 50.1875C10.1875 51.1458 10.8958 52.0417 11.5625 52.875C12.2292 53.7083 12.8333 54.4167 13.375 55C13.9167 55.5417 14.3542 55.7917 14.6875 55.75C14.9375 55.75 15.2083 55.5625 15.5 55.1875C15.7917 54.7708 16.0625 54.2917 16.3125 53.75C16.5625 53.1667 16.7708 52.5833 16.9375 52C17.1042 51.4167 17.1875 50.9583 17.1875 50.625C17.1458 50.125 16.7292 49.4167 15.9375 48.5C15.1875 47.5417 14.2292 46.4792 13.0625 45.3125C11.9375 44.1042 10.7083 42.8542 9.375 41.5625C8.08333 40.2708 6.85417 39.0417 5.6875 37.875C4.5625 36.6667 3.60417 35.5833 2.8125 34.625C2.0625 33.6667 1.66667 32.9375 1.625 32.4375C1.58333 31.9375 1.72917 31.1667 2.0625 30.125C2.39583 29.0417 2.83333 27.8333 3.375 26.5C3.95833 25.1667 4.60417 23.8125 5.3125 22.4375C6.02083 21.0625 6.75 19.7917 7.5 18.625C8.25 17.4583 8.97917 16.5208 9.6875 15.8125C10.3958 15.0625 11.0208 14.6875 11.5625 14.6875C12.2708 14.6875 13.0833 14.8542 14 15.1875C14.9167 15.4792 15.8542 15.8958 16.8125 16.4375C17.8125 16.9375 18.7708 17.5208 19.6875 18.1875C20.6458 18.8542 21.5 19.5417 22.25 20.25C23 20.9167 23.6042 21.6042 24.0625 22.3125C24.5208 22.9792 24.7708 23.6042 24.8125 24.1875ZM49.3125 24.1875C49.3542 24.8125 49.2708 25.75 49.0625 27C48.8958 28.25 48.6042 29.5 48.1875 30.75C47.7708 32 47.2292 33.1042 46.5625 34.0625C45.9375 34.9792 45.2083 35.4375 44.375 35.4375C43.9583 35.4375 43.6042 35.1875 43.3125 34.6875C43.0208 34.1875 42.7708 33.5417 42.5625 32.75C42.3542 31.9583 42.1875 31.0833 42.0625 30.125C41.9375 29.125 41.8125 28.1667 41.6875 27.25C41.6042 26.3333 41.5208 25.5 41.4375 24.75C41.3958 23.9583 41.3542 23.375 41.3125 23C41.1458 22.75 40.8333 22.5 40.375 22.25C39.9583 21.9583 39.5833 21.8125 39.25 21.8125C38.875 21.8125 38.4167 22.1667 37.875 22.875C37.375 23.5833 36.8958 24.4167 36.4375 25.375C35.9792 26.3333 35.6042 27.2917 35.3125 28.25C35.0208 29.1667 34.8958 29.875 34.9375 30.375C34.9375 30.7083 35.25 31.2917 35.875 32.125C36.5417 32.9583 37.3542 33.9375 38.3125 35.0625C39.2708 36.1875 40.3125 37.4167 41.4375 38.75C42.5625 40.0417 43.6042 41.3333 44.5625 42.625C45.5208 43.9167 46.3333 45.1458 47 46.3125C47.6667 47.4792 48.0208 48.4792 48.0625 49.3125C48.1458 50.3125 47.9167 51.6042 47.375 53.1875C46.875 54.7292 46.2292 56.2292 45.4375 57.6875C44.6458 59.1458 43.7917 60.4167 42.875 61.5C42 62.5417 41.2083 63.0833 40.5 63.125C40.0417 63.1667 39.4375 62.9583 38.6875 62.5C37.9375 62.0833 37.125 61.5208 36.25 60.8125C35.375 60.1042 34.4792 59.3333 33.5625 58.5C32.6875 57.625 31.8542 56.7708 31.0625 55.9375C30.3125 55.1042 29.6667 54.3542 29.125 53.6875C28.625 52.9792 28.3333 52.4583 28.25 52.125C28.0833 51.625 27.9792 50.9583 27.9375 50.125C27.9375 49.25 27.9792 48.4167 28.0625 47.625C28.1875 46.7917 28.3333 46.0833 28.5 45.5C28.7083 44.875 28.9583 44.5625 29.25 44.5625C29.4583 44.5625 29.7917 44.8333 30.25 45.375C30.75 45.9167 31.3125 46.6042 31.9375 47.4375C32.5625 48.2708 33.2292 49.1875 33.9375 50.1875C34.6875 51.1458 35.3958 52.0417 36.0625 52.875C36.7292 53.7083 37.3333 54.4167 37.875 55C38.4167 55.5417 38.8542 55.7917 39.1875 55.75C39.4375 55.75 39.7083 55.5625 40 55.1875C40.2917 54.7708 40.5625 54.2917 40.8125 53.75C41.0625 53.1667 41.2708 52.5833 41.4375 52C41.6042 51.4167 41.6875 50.9583 41.6875 50.625C41.6458 50.125 41.2292 49.4167 40.4375 48.5C39.6875 47.5417 38.7292 46.4792 37.5625 45.3125C36.4375 44.1042 35.2083 42.8542 33.875 41.5625C32.5833 40.2708 31.3542 39.0417 30.1875 37.875C29.0625 36.6667 28.1042 35.5833 27.3125 34.625C26.5625 33.6667 26.1667 32.9375 26.125 32.4375C26.0833 31.9375 26.2292 31.1667 26.5625 30.125C26.8958 29.0417 27.3333 27.8333 27.875 26.5C28.4583 25.1667 29.1042 23.8125 29.8125 22.4375C30.5208 21.0625 31.25 19.7917 32 18.625C32.75 17.4583 33.4792 16.5208 34.1875 15.8125C34.8958 15.0625 35.5208 14.6875 36.0625 14.6875C36.7708 14.6875 37.5833 14.8542 38.5 15.1875C39.4167 15.4792 40.3542 15.8958 41.3125 16.4375C42.3125 16.9375 43.2708 17.5208 44.1875 18.1875C45.1458 18.8542 46 19.5417 46.75 20.25C47.5 20.9167 48.1042 21.6042 48.5625 22.3125C49.0208 22.9792 49.2708 23.6042 49.3125 24.1875Z"/>
</mask>
<path d="M24.8125 24.1875C24.8542 24.8125 24.7708 25.75 24.5625 27C24.3958 28.25 24.1042 29.5 23.6875 30.75C23.2708 32 22.7292 33.1042 22.0625 34.0625C21.4375 34.9792 20.7083 35.4375 19.875 35.4375C19.4583 35.4375 19.1042 35.1875 18.8125 34.6875C18.5208 34.1875 18.2708 33.5417 18.0625 32.75C17.8542 31.9583 17.6875 31.0833 17.5625 30.125C17.4375 29.125 17.3125 28.1667 17.1875 27.25C17.1042 26.3333 17.0208 25.5 16.9375 24.75C16.8958 23.9583 16.8542 23.375 16.8125 23C16.6458 22.75 16.3333 22.5 15.875 22.25C15.4583 21.9583 15.0833 21.8125 14.75 21.8125C14.375 21.8125 13.9167 22.1667 13.375 22.875C12.875 23.5833 12.3958 24.4167 11.9375 25.375C11.4792 26.3333 11.1042 27.2917 10.8125 28.25C10.5208 29.1667 10.3958 29.875 10.4375 30.375C10.4375 30.7083 10.75 31.2917 11.375 32.125C12.0417 32.9583 12.8542 33.9375 13.8125 35.0625C14.7708 36.1875 15.8125 37.4167 16.9375 38.75C18.0625 40.0417 19.1042 41.3333 20.0625 42.625C21.0208 43.9167 21.8333 45.1458 22.5 46.3125C23.1667 47.4792 23.5208 48.4792 23.5625 49.3125C23.6458 50.3125 23.4167 51.6042 22.875 53.1875C22.375 54.7292 21.7292 56.2292 20.9375 57.6875C20.1458 59.1458 19.2917 60.4167 18.375 61.5C17.5 62.5417 16.7083 63.0833 16 63.125C15.5417 63.1667 14.9375 62.9583 14.1875 62.5C13.4375 62.0833 12.625 61.5208 11.75 60.8125C10.875 60.1042 9.97917 59.3333 9.0625 58.5C8.1875 57.625 7.35417 56.7708 6.5625 55.9375C5.8125 55.1042 5.16667 54.3542 4.625 53.6875C4.125 52.9792 3.83333 52.4583 3.75 52.125C3.58333 51.625 3.47917 50.9583 3.4375 50.125C3.4375 49.25 3.47917 48.4167 3.5625 47.625C3.6875 46.7917 3.83333 46.0833 4 45.5C4.20833 44.875 4.45833 44.5625 4.75 44.5625C4.95833 44.5625 5.29167 44.8333 5.75 45.375C6.25 45.9167 6.8125 46.6042 7.4375 47.4375C8.0625 48.2708 8.72917 49.1875 9.4375 50.1875C10.1875 51.1458 10.8958 52.0417 11.5625 52.875C12.2292 53.7083 12.8333 54.4167 13.375 55C13.9167 55.5417 14.3542 55.7917 14.6875 55.75C14.9375 55.75 15.2083 55.5625 15.5 55.1875C15.7917 54.7708 16.0625 54.2917 16.3125 53.75C16.5625 53.1667 16.7708 52.5833 16.9375 52C17.1042 51.4167 17.1875 50.9583 17.1875 50.625C17.1458 50.125 16.7292 49.4167 15.9375 48.5C15.1875 47.5417 14.2292 46.4792 13.0625 45.3125C11.9375 44.1042 10.7083 42.8542 9.375 41.5625C8.08333 40.2708 6.85417 39.0417 5.6875 37.875C4.5625 36.6667 3.60417 35.5833 2.8125 34.625C2.0625 33.6667 1.66667 32.9375 1.625 32.4375C1.58333 31.9375 1.72917 31.1667 2.0625 30.125C2.39583 29.0417 2.83333 27.8333 3.375 26.5C3.95833 25.1667 4.60417 23.8125 5.3125 22.4375C6.02083 21.0625 6.75 19.7917 7.5 18.625C8.25 17.4583 8.97917 16.5208 9.6875 15.8125C10.3958 15.0625 11.0208 14.6875 11.5625 14.6875C12.2708 14.6875 13.0833 14.8542 14 15.1875C14.9167 15.4792 15.8542 15.8958 16.8125 16.4375C17.8125 16.9375 18.7708 17.5208 19.6875 18.1875C20.6458 18.8542 21.5 19.5417 22.25 20.25C23 20.9167 23.6042 21.6042 24.0625 22.3125C24.5208 22.9792 24.7708 23.6042 24.8125 24.1875ZM49.3125 24.1875C49.3542 24.8125 49.2708 25.75 49.0625 27C48.8958 28.25 48.6042 29.5 48.1875 30.75C47.7708 32 47.2292 33.1042 46.5625 34.0625C45.9375 34.9792 45.2083 35.4375 44.375 35.4375C43.9583 35.4375 43.6042 35.1875 43.3125 34.6875C43.0208 34.1875 42.7708 33.5417 42.5625 32.75C42.3542 31.9583 42.1875 31.0833 42.0625 30.125C41.9375 29.125 41.8125 28.1667 41.6875 27.25C41.6042 26.3333 41.5208 25.5 41.4375 24.75C41.3958 23.9583 41.3542 23.375 41.3125 23C41.1458 22.75 40.8333 22.5 40.375 22.25C39.9583 21.9583 39.5833 21.8125 39.25 21.8125C38.875 21.8125 38.4167 22.1667 37.875 22.875C37.375 23.5833 36.8958 24.4167 36.4375 25.375C35.9792 26.3333 35.6042 27.2917 35.3125 28.25C35.0208 29.1667 34.8958 29.875 34.9375 30.375C34.9375 30.7083 35.25 31.2917 35.875 32.125C36.5417 32.9583 37.3542 33.9375 38.3125 35.0625C39.2708 36.1875 40.3125 37.4167 41.4375 38.75C42.5625 40.0417 43.6042 41.3333 44.5625 42.625C45.5208 43.9167 46.3333 45.1458 47 46.3125C47.6667 47.4792 48.0208 48.4792 48.0625 49.3125C48.1458 50.3125 47.9167 51.6042 47.375 53.1875C46.875 54.7292 46.2292 56.2292 45.4375 57.6875C44.6458 59.1458 43.7917 60.4167 42.875 61.5C42 62.5417 41.2083 63.0833 40.5 63.125C40.0417 63.1667 39.4375 62.9583 38.6875 62.5C37.9375 62.0833 37.125 61.5208 36.25 60.8125C35.375 60.1042 34.4792 59.3333 33.5625 58.5C32.6875 57.625 31.8542 56.7708 31.0625 55.9375C30.3125 55.1042 29.6667 54.3542 29.125 53.6875C28.625 52.9792 28.3333 52.4583 28.25 52.125C28.0833 51.625 27.9792 50.9583 27.9375 50.125C27.9375 49.25 27.9792 48.4167 28.0625 47.625C28.1875 46.7917 28.3333 46.0833 28.5 45.5C28.7083 44.875 28.9583 44.5625 29.25 44.5625C29.4583 44.5625 29.7917 44.8333 30.25 45.375C30.75 45.9167 31.3125 46.6042 31.9375 47.4375C32.5625 48.2708 33.2292 49.1875 33.9375 50.1875C34.6875 51.1458 35.3958 52.0417 36.0625 52.875C36.7292 53.7083 37.3333 54.4167 37.875 55C38.4167 55.5417 38.8542 55.7917 39.1875 55.75C39.4375 55.75 39.7083 55.5625 40 55.1875C40.2917 54.7708 40.5625 54.2917 40.8125 53.75C41.0625 53.1667 41.2708 52.5833 41.4375 52C41.6042 51.4167 41.6875 50.9583 41.6875 50.625C41.6458 50.125 41.2292 49.4167 40.4375 48.5C39.6875 47.5417 38.7292 46.4792 37.5625 45.3125C36.4375 44.1042 35.2083 42.8542 33.875 41.5625C32.5833 40.2708 31.3542 39.0417 30.1875 37.875C29.0625 36.6667 28.1042 35.5833 27.3125 34.625C26.5625 33.6667 26.1667 32.9375 26.125 32.4375C26.0833 31.9375 26.2292 31.1667 26.5625 30.125C26.8958 29.0417 27.3333 27.8333 27.875 26.5C28.4583 25.1667 29.1042 23.8125 29.8125 22.4375C30.5208 21.0625 31.25 19.7917 32 18.625C32.75 17.4583 33.4792 16.5208 34.1875 15.8125C34.8958 15.0625 35.5208 14.6875 36.0625 14.6875C36.7708 14.6875 37.5833 14.8542 38.5 15.1875C39.4167 15.4792 40.3542 15.8958 41.3125 16.4375C42.3125 16.9375 43.2708 17.5208 44.1875 18.1875C45.1458 18.8542 46 19.5417 46.75 20.25C47.5 20.9167 48.1042 21.6042 48.5625 22.3125C49.0208 22.9792 49.2708 23.6042 49.3125 24.1875Z" fill="#F7DF1E"/>
<path d="M24.8125 24.1875L26.8081 24.0545L26.8074 24.045L24.8125 24.1875ZM24.5625 27L22.5897 26.6712L22.5844 26.7034L22.58 26.7357L24.5625 27ZM22.0625 34.0625L20.4207 32.9204L20.4153 32.9281L20.41 32.9358L22.0625 34.0625ZM17.5625 30.125L15.5779 30.3731L15.5793 30.3837L17.5625 30.125ZM17.1875 27.25L15.1957 27.4311L15.1998 27.4758L15.2058 27.5202L17.1875 27.25ZM16.9375 24.75L14.9403 24.8551L14.9433 24.9131L14.9497 24.9709L16.9375 24.75ZM16.8125 23L18.8003 22.7791L18.7465 22.2955L18.4766 21.8906L16.8125 23ZM15.875 22.25L14.7281 23.8885L14.8194 23.9524L14.9173 24.0058L15.875 22.25ZM13.375 22.875L11.7863 21.6601L11.7631 21.6904L11.7411 21.7216L13.375 22.875ZM10.8125 28.25L12.7184 28.8564L12.7222 28.8444L12.7258 28.8323L10.8125 28.25ZM10.4375 30.375H12.4375V30.2918L12.4306 30.2089L10.4375 30.375ZM11.375 32.125L9.775 33.325L9.79375 33.35L9.81326 33.3744L11.375 32.125ZM16.9375 38.75L15.4089 40.0397L15.419 40.0517L15.4293 40.0636L16.9375 38.75ZM22.5 46.3125L20.7635 47.3048L22.5 46.3125ZM23.5625 49.3125L21.565 49.4124L21.5667 49.4455L21.5694 49.4786L23.5625 49.3125ZM22.875 53.1875L20.9827 52.5401L20.9775 52.5553L20.9726 52.5705L22.875 53.1875ZM20.9375 57.6875L19.1798 56.7333L20.9375 57.6875ZM18.375 61.5L16.8482 60.2081L16.8436 60.2136L18.375 61.5ZM16 63.125L15.8826 61.1285L15.8507 61.1303L15.8189 61.1332L16 63.125ZM14.1875 62.5L15.2304 60.7934L15.195 60.7718L15.1588 60.7517L14.1875 62.5ZM9.0625 58.5L7.64829 59.9142L7.68194 59.9479L7.71715 59.9799L9.0625 58.5ZM6.5625 55.9375L5.07591 57.2754L5.09394 57.2955L5.1125 57.315L6.5625 55.9375ZM4.625 53.6875L2.99106 54.8409L3.03009 54.8962L3.07277 54.9487L4.625 53.6875ZM3.75 52.125L5.69029 51.6399L5.67166 51.5654L5.64737 51.4925L3.75 52.125ZM3.4375 50.125H1.4375V50.175L1.44 50.2249L3.4375 50.125ZM3.5625 47.625L1.58463 47.3283L1.5781 47.3719L1.57349 47.4156L3.5625 47.625ZM4 45.5L2.10263 44.8675L2.08889 44.9088L2.07695 44.9506L4 45.5ZM5.75 45.375L4.22323 46.6669L4.25111 46.6998L4.28039 46.7316L5.75 45.375ZM9.4375 50.1875L7.80545 51.3435L7.83306 51.3825L7.86249 51.4201L9.4375 50.1875ZM13.375 55L11.9094 56.3609L11.9346 56.388L11.9608 56.4142L13.375 55ZM14.6875 55.75V53.75H14.563L14.4394 53.7654L14.6875 55.75ZM15.5 55.1875L17.0787 56.4154L17.1096 56.3757L17.1385 56.3344L15.5 55.1875ZM16.3125 53.75L18.1284 54.5881L18.14 54.5631L18.1508 54.5378L16.3125 53.75ZM16.9375 52L15.0145 51.4506L16.9375 52ZM17.1875 50.625H19.1875V50.5418L19.1806 50.4589L17.1875 50.625ZM15.9375 48.5L14.3625 49.7326L14.3923 49.7707L14.4239 49.8072L15.9375 48.5ZM13.0625 45.3125L11.5987 46.6753L11.623 46.7015L11.6483 46.7267L13.0625 45.3125ZM9.375 41.5625L7.96079 42.9767L7.97201 42.9879L7.98341 42.999L9.375 41.5625ZM5.6875 37.875L4.22371 39.2378L4.24804 39.264L4.27329 39.2892L5.6875 37.875ZM2.8125 34.625L1.23749 35.8576L1.25376 35.8784L1.27058 35.8988L2.8125 34.625ZM2.0625 30.125L3.96735 30.7346L3.97076 30.7239L3.97406 30.7132L2.0625 30.125ZM3.375 26.5L1.54269 25.6984L1.53205 25.7227L1.52207 25.7472L3.375 26.5ZM9.6875 15.8125L11.1017 17.2267L11.1219 17.2065L11.1415 17.1857L9.6875 15.8125ZM14 15.1875L13.3165 17.0671L13.3548 17.081L13.3936 17.0934L14 15.1875ZM16.8125 16.4375L15.8284 18.1786L15.8726 18.2036L15.9181 18.2264L16.8125 16.4375ZM19.6875 18.1875L18.5112 19.805L18.5281 19.8173L18.5454 19.8293L19.6875 18.1875ZM22.25 20.25L20.8768 21.704L20.8987 21.7248L20.9213 21.7448L22.25 20.25ZM24.0625 22.3125L22.3834 23.399L22.3986 23.4225L22.4144 23.4456L24.0625 22.3125ZM22.8169 24.3205C22.8425 24.7036 22.7929 25.4519 22.5897 26.6712L26.5353 27.3288C26.7487 26.0481 26.8659 24.9214 26.8081 24.0545L22.8169 24.3205ZM22.58 26.7357C22.4308 27.8551 22.1687 28.9819 21.7901 30.1175L25.5849 31.3825C26.0397 30.0181 26.3609 28.6449 26.545 27.2643L22.58 26.7357ZM21.7901 30.1175C21.4262 31.2092 20.9653 32.1375 20.4207 32.9204L23.7043 35.2046C24.4931 34.0708 25.1154 32.7908 25.5849 31.3825L21.7901 30.1175ZM20.41 32.9358C20.2097 33.2297 20.0574 33.3534 19.9825 33.4005C19.9255 33.4363 19.902 33.4375 19.875 33.4375V37.4375C21.5796 37.4375 22.8537 36.4523 23.715 35.1892L20.41 32.9358ZM19.875 33.4375C19.9743 33.4375 20.0827 33.453 20.1912 33.4882C20.2991 33.5232 20.386 33.5707 20.4502 33.6161C20.5717 33.7018 20.5875 33.7611 20.5401 33.6798L17.0849 35.6952C17.5789 36.5421 18.4838 37.4375 19.875 37.4375V33.4375ZM20.5401 33.6798C20.3684 33.3856 20.1764 32.9239 19.9966 32.241L16.1284 33.259C16.3653 34.1595 16.6732 34.9894 17.0849 35.6952L20.5401 33.6798ZM19.9966 32.241C19.8134 31.5448 19.6616 30.7549 19.5457 29.8663L15.5793 30.3837C15.7134 31.4118 15.8949 32.3719 16.1284 33.259L19.9966 32.241ZM19.5471 29.8769C19.4212 28.8702 19.2953 27.9044 19.1692 26.9798L15.2058 27.5202C15.3297 28.4289 15.4538 29.3798 15.5779 30.3731L19.5471 29.8769ZM19.1793 27.0689C19.095 26.1417 19.0104 25.2949 18.9253 24.5291L14.9497 24.9709C15.0313 25.7051 15.1133 26.5249 15.1957 27.4311L19.1793 27.0689ZM18.9347 24.6449C18.8927 23.8469 18.8487 23.2151 18.8003 22.7791L14.8247 23.2209C14.8596 23.5349 14.8989 24.0698 14.9403 24.8551L18.9347 24.6449ZM18.4766 21.8906C18.0429 21.24 17.394 20.8004 16.8327 20.4942L14.9173 24.0058C15.0729 24.0906 15.1615 24.153 15.2037 24.1867C15.2492 24.2231 15.2099 24.2017 15.1484 24.1094L18.4766 21.8906ZM17.0219 20.6115C16.4347 20.2005 15.6577 19.8125 14.75 19.8125V23.8125C14.6232 23.8125 14.5534 23.7847 14.5564 23.7859C14.5574 23.7863 14.5728 23.7924 14.6029 23.8091C14.6331 23.8257 14.6747 23.8511 14.7281 23.8885L17.0219 20.6115ZM14.75 19.8125C13.9365 19.8125 13.3017 20.1868 12.9021 20.4956C12.4827 20.8196 12.1124 21.2336 11.7863 21.6601L14.9637 24.0899C15.0664 23.9556 15.1527 23.8546 15.222 23.7809C15.2925 23.706 15.3347 23.6709 15.3479 23.6607C15.3629 23.6491 15.3252 23.6814 15.2354 23.7196C15.1423 23.7591 14.9747 23.8125 14.75 23.8125V19.8125ZM11.7411 21.7216C11.1637 22.5396 10.6297 23.474 10.1332 24.5121L13.7418 26.2379C14.162 25.3593 14.5863 24.6271 15.0089 24.0284L11.7411 21.7216ZM10.1332 24.5121C9.63413 25.5557 9.22178 26.6076 8.89915 27.6677L12.7258 28.8323C12.9866 27.9757 13.3242 27.111 13.7418 26.2379L10.1332 24.5121ZM8.90665 27.6436C8.59495 28.6232 8.36918 29.6384 8.44441 30.5411L12.4306 30.2089C12.4225 30.1116 12.4467 29.7101 12.7184 28.8564L8.90665 27.6436ZM8.4375 30.375C8.4375 31.0608 8.72189 31.6578 8.90892 32.0069C9.13196 32.4233 9.43202 32.8677 9.775 33.325L12.975 30.925C12.693 30.549 12.5243 30.285 12.4348 30.1181C12.3909 30.036 12.3829 30.0084 12.3891 30.0265C12.3918 30.0343 12.4375 30.1638 12.4375 30.375H8.4375ZM9.81326 33.3744C10.4966 34.2285 11.323 35.2242 12.29 36.3594L15.335 33.7656C14.3853 32.6508 13.5868 31.6881 12.9367 30.8756L9.81326 33.3744ZM12.29 36.3594C13.246 37.4817 14.2856 38.7084 15.4089 40.0397L18.4661 37.4603C17.3394 36.1249 16.2957 34.8933 15.335 33.7656L12.29 36.3594ZM15.4293 40.0636C16.5223 41.3184 17.531 42.5695 18.4563 43.8167L21.6687 41.4333C20.6774 40.0972 19.6027 38.7649 18.4457 37.4364L15.4293 40.0636ZM18.4563 43.8167C19.3762 45.0565 20.143 46.219 20.7635 47.3048L24.2365 45.3202C23.5236 44.0727 22.6655 42.7768 21.6687 41.4333L18.4563 43.8167ZM20.7635 47.3048C21.3591 48.347 21.5458 49.0278 21.565 49.4124L25.56 49.2126C25.4959 47.9305 24.9743 46.6114 24.2365 45.3202L20.7635 47.3048ZM21.5694 49.4786C21.6194 50.0791 21.4869 51.0663 20.9827 52.5401L24.7673 53.8349C25.3465 52.142 25.6722 50.5459 25.5556 49.1464L21.5694 49.4786ZM20.9726 52.5705C20.5113 53.9928 19.9144 55.3801 19.1798 56.7333L22.6952 58.6417C23.544 57.0782 24.2387 55.4655 24.7774 53.8045L20.9726 52.5705ZM19.1798 56.7333C18.4427 58.0911 17.6632 59.2449 16.8482 60.2081L19.9018 62.7919C20.9201 61.5884 21.849 60.2005 22.6952 58.6417L19.1798 56.7333ZM16.8436 60.2136C16.4784 60.6483 16.1935 60.9015 15.9956 61.0369C15.7976 61.1724 15.7683 61.1352 15.8826 61.1285L16.1174 65.1215C17.7028 65.0283 18.9676 63.904 19.9064 62.7864L16.8436 60.2136ZM15.8189 61.1332C15.9585 61.1205 15.987 61.1548 15.8551 61.1093C15.7297 61.066 15.5245 60.9732 15.2304 60.7934L13.1446 64.2066C13.9762 64.7147 15.0517 65.2195 16.1811 65.1168L15.8189 61.1332ZM15.1588 60.7517C14.5355 60.4054 13.8195 59.9147 13.0084 59.258L10.4916 62.367C11.4305 63.127 12.3395 63.7612 13.2162 64.2483L15.1588 60.7517ZM13.0084 59.258C12.1659 58.576 11.299 57.8303 10.4078 57.0201L7.71715 59.9799C8.65932 60.8364 9.58414 61.6324 10.4916 62.367L13.0084 59.258ZM10.4767 57.0858C9.61289 56.222 8.79154 55.38 8.0125 54.56L5.1125 57.315C5.91679 58.1616 6.76211 59.028 7.64829 59.9142L10.4767 57.0858ZM8.04909 54.5996C7.31525 53.7842 6.69241 53.0604 6.17723 52.4263L3.07277 54.9487C3.64092 55.6479 4.30975 56.4241 5.07591 57.2754L8.04909 54.5996ZM6.25894 52.5341C6.03282 52.2138 5.87676 51.9679 5.77626 51.7884C5.66343 51.5869 5.66866 51.5534 5.69029 51.6399L1.80971 52.6101C1.99457 53.3495 2.50181 54.1477 2.99106 54.8409L6.25894 52.5341ZM5.64737 51.4925C5.56138 51.2346 5.47222 50.7695 5.435 50.0251L1.44 50.2249C1.48611 51.1472 1.60528 52.0154 1.85263 52.7575L5.64737 51.4925ZM5.4375 50.125C5.4375 49.3132 5.47618 48.5501 5.55151 47.8344L1.57349 47.4156C1.48216 48.2833 1.4375 49.1868 1.4375 50.125H5.4375ZM5.54037 47.9217C5.65709 47.1435 5.7872 46.5249 5.92305 46.0494L2.07695 44.9506C1.87946 45.6418 1.71791 46.4398 1.58463 47.3283L5.54037 47.9217ZM5.89737 46.1325C5.96874 45.9183 5.99252 45.9375 5.90549 46.0463C5.85393 46.1107 5.73775 46.2385 5.53851 46.3535C5.32495 46.4767 5.05319 46.5625 4.75 46.5625V42.5625C3.79159 42.5625 3.13672 43.1041 2.78201 43.5475C2.44498 43.9688 2.23959 44.4567 2.10263 44.8675L5.89737 46.1325ZM4.75 46.5625C4.38319 46.5625 4.12857 46.4488 4.03526 46.4021C3.93083 46.3499 3.88203 46.3073 3.89506 46.3179C3.90283 46.3242 3.93629 46.3527 3.99723 46.4153C4.05666 46.4763 4.13174 46.5588 4.22323 46.6669L7.27677 44.0831C7.01195 43.7701 6.72237 43.4612 6.41744 43.2134C6.20895 43.044 5.59954 42.5625 4.75 42.5625V46.5625ZM4.28039 46.7316C4.71984 47.2076 5.23809 47.8383 5.8375 48.6375L9.0375 46.2375C8.38691 45.37 7.78016 44.6257 7.21961 44.0184L4.28039 46.7316ZM5.8375 48.6375C6.44993 49.4541 7.10583 50.3558 7.80545 51.3435L11.0695 49.0315C10.3525 48.0192 9.67507 47.0876 9.0375 46.2375L5.8375 48.6375ZM7.86249 51.4201C8.61629 52.3833 9.32908 53.2848 10.0008 54.1244L13.1242 51.6256C12.4626 50.7986 11.7587 49.9084 11.0125 48.9549L7.86249 51.4201ZM10.0008 54.1244C10.6885 54.9841 11.3253 55.7319 11.9094 56.3609L14.8406 53.6391C14.3414 53.1015 13.7698 52.4326 13.1242 51.6256L10.0008 54.1244ZM11.9608 56.4142C12.2993 56.7527 12.6861 57.084 13.1171 57.3302C13.533 57.5679 14.1725 57.8299 14.9356 57.7346L14.4394 53.7654C14.6575 53.7382 14.8318 53.7666 14.9398 53.7958C15.0442 53.8241 15.0998 53.8562 15.1017 53.8573C15.105 53.8592 15.0778 53.8437 15.0192 53.7963C14.9617 53.7498 14.8851 53.6817 14.7892 53.5858L11.9608 56.4142ZM14.6875 57.75C15.9315 57.75 16.7239 56.8716 17.0787 56.4154L13.9213 53.9596C13.8501 54.0512 13.8521 54.0257 13.9397 53.965C14.0338 53.8999 14.2944 53.75 14.6875 53.75V57.75ZM17.1385 56.3344C17.5088 55.8053 17.8369 55.2198 18.1284 54.5881L14.4966 52.9119C14.2881 53.3635 14.0745 53.7363 13.8615 54.0406L17.1385 56.3344ZM18.1508 54.5378C18.4325 53.8805 18.6697 53.2176 18.8605 52.5494L15.0145 51.4506C14.872 51.9491 14.6925 52.4529 14.4742 52.9622L18.1508 54.5378ZM18.8605 52.5494C19.0438 51.9081 19.1875 51.2378 19.1875 50.625H15.1875C15.1875 50.635 15.1852 50.7072 15.1573 50.861C15.1302 51.0097 15.0848 51.2043 15.0145 51.4506L18.8605 52.5494ZM19.1806 50.4589C19.1238 49.7776 18.8426 49.1722 18.5676 48.7047C18.2769 48.2105 17.8925 47.7038 17.4511 47.1928L14.4239 49.8072C14.7742 50.2129 14.9939 50.5187 15.1199 50.7328C15.2616 50.9737 15.2095 50.9724 15.1944 50.7911L19.1806 50.4589ZM17.5125 47.2674C16.6987 46.2275 15.682 45.1035 14.4767 43.8983L11.6483 46.7267C12.7764 47.8548 13.6763 48.8559 14.3625 49.7326L17.5125 47.2674ZM14.5263 43.9497C13.3752 42.7133 12.1216 41.4387 10.7666 40.126L7.98341 42.999C9.29503 44.2696 10.4998 45.495 11.5987 46.6753L14.5263 43.9497ZM10.7892 40.1483C10.3657 39.7248 10.2479 39.6069 9.83218 39.1913C9.82781 39.1869 9.82179 39.1809 9.81741 39.1765C9.81304 39.1721 9.80703 39.1661 9.80265 39.1617C9.80019 39.1593 9.79773 39.1568 9.79527 39.1543C9.79281 39.1519 9.79036 39.1494 9.7879 39.147C9.78544 39.1445 9.78298 39.1421 9.78052 39.1396C9.77806 39.1371 9.7756 39.1347 9.77315 39.1322C9.77069 39.1298 9.76823 39.1273 9.76577 39.1248C9.76332 39.1224 9.76086 39.1199 9.7584 39.1175C9.75594 39.115 9.75349 39.1126 9.75103 39.1101C9.74857 39.1076 9.74612 39.1052 9.74366 39.1027C9.74121 39.1003 9.73875 39.0978 9.73629 39.0954C9.73384 39.0929 9.73138 39.0905 9.72893 39.088C9.72647 39.0855 9.72402 39.0831 9.72156 39.0806C9.71911 39.0782 9.71666 39.0757 9.7142 39.0733C9.71175 39.0708 9.70929 39.0684 9.70684 39.0659C9.70439 39.0635 9.70193 39.061 9.69948 39.0586C9.69512 39.0542 9.68912 39.0482 9.68476 39.0438C9.6804 39.0395 9.67441 39.0335 9.67005 39.0291C9.6657 39.0248 9.6597 39.0188 9.65535 39.0144C9.65099 39.0101 9.645 39.0041 9.64065 38.9997C9.63629 38.9954 9.63031 38.9894 9.62596 38.985C9.6216 38.9807 9.61562 38.9747 9.61127 38.9703C9.60692 38.966 9.60093 38.96 9.59659 38.9557C9.57919 38.9383 9.55528 38.9144 9.53792 38.897C9.53357 38.8926 9.5276 38.8867 9.52326 38.8823C9.51892 38.878 9.51295 38.872 9.50862 38.8677C9.50428 38.8633 9.49831 38.8574 9.49397 38.853C9.4853 38.8444 9.48801 38.8471 9.47934 38.8384C9.47067 38.8297 9.47338 38.8324 9.46471 38.8238C9.44737 38.8064 9.46742 38.8265 9.45008 38.8092C9.43275 38.7918 9.45279 38.8119 9.43546 38.7945C9.41815 38.7772 9.43817 38.7972 9.42085 38.7799C9.41219 38.7713 9.40029 38.7594 9.39164 38.7507C9.38299 38.7421 9.38569 38.7448 9.37705 38.7361C9.3684 38.7275 9.3711 38.7302 9.36246 38.7215C9.22375 38.5828 9.03534 38.3944 8.89859 38.2577C8.88146 38.2405 8.80055 38.1596 8.78354 38.1426C8.76648 38.1256 8.68578 38.0449 8.66885 38.0279C8.62645 37.9855 8.65402 38.0131 8.61165 37.9707C8.5693 37.9284 8.59685 37.9559 8.55453 37.9136C8.51228 37.8714 8.53973 37.8988 8.49751 37.8566C8.48063 37.8397 8.4859 37.845 8.46903 37.8281C8.45849 37.8176 8.46535 37.8244 8.4548 37.8139C8.45243 37.8115 8.45006 37.8091 8.44769 37.8068C8.44532 37.8044 8.44295 37.802 8.44058 37.7997C8.42369 37.7828 8.34376 37.7028 8.32699 37.6861C8.31015 37.6692 8.2305 37.5896 8.21377 37.5728C8.17194 37.531 8.19911 37.5582 8.1573 37.5164C8.11548 37.4746 8.14271 37.5018 8.10092 37.46C8.08419 37.4433 8.00504 37.3641 7.98843 37.3475C7.97175 37.3308 7.89287 37.2519 7.87631 37.2354C7.85967 37.2187 7.78107 37.1401 7.76456 37.1236C7.66507 37.0241 7.64114 37.0002 7.54214 36.9012C7.50918 36.8683 7.35367 36.7127 7.3212 36.6803C7.28854 36.6476 7.13388 36.493 7.10171 36.4608L4.27329 39.2892C4.78445 39.8004 5.52775 40.5437 6.07016 41.0861C6.08717 41.1031 6.16844 41.1844 6.18558 41.2015C6.20267 41.2186 6.28415 41.3001 6.30136 41.3173C6.3185 41.3344 6.40026 41.4162 6.41751 41.4334C6.46925 41.4852 6.42396 41.4399 6.47572 41.4917C6.52752 41.5435 6.4822 41.4981 6.53403 41.55C6.67219 41.6881 6.86364 41.8796 7.00376 42.0197C7.16136 42.1773 7.31978 42.3357 7.47934 42.4953C7.5858 42.6017 7.61239 42.6283 7.71933 42.7353C7.74602 42.7619 7.81307 42.829 7.83988 42.8558C7.86673 42.8827 7.93381 42.9497 7.96079 42.9767L10.7892 40.1483ZM7.15129 36.5122C6.04508 35.324 5.11433 34.2711 4.35442 33.3512L1.27058 35.8988C2.094 36.8955 3.07992 38.0093 4.22371 39.2378L7.15129 36.5122ZM4.38751 33.3924C4.05251 32.9643 3.83743 32.6384 3.71083 32.4052C3.56967 32.1452 3.60565 32.1222 3.61809 32.2714L-0.368092 32.6036C-0.313988 33.2528 -0.0592517 33.8444 0.195418 34.3136C0.464657 34.8095 0.82249 35.3273 1.23749 35.8576L4.38751 33.3924ZM3.61809 32.2714C3.61818 32.2724 3.6123 32.152 3.66827 31.8562C3.72136 31.5755 3.81671 31.2053 3.96735 30.7346L0.157652 29.5154C-0.183438 30.5814 -0.445123 31.6792 -0.368092 32.6036L3.61809 32.2714ZM3.97406 30.7132C4.28642 29.698 4.70267 28.5457 5.22793 27.2528L1.52207 25.7472C0.964 27.1209 0.505246 28.3853 0.150942 29.5368L3.97406 30.7132ZM5.20731 27.3016C5.77272 26.0093 6.40024 24.6932 7.09045 23.3534L3.53455 21.5216C2.80809 22.9318 2.14395 24.3241 1.54269 25.6984L5.20731 27.3016ZM7.09045 23.3534C7.77285 22.0288 8.4705 20.8138 9.18236 19.7065L5.81764 17.5435C5.0295 18.7695 4.26882 20.0962 3.53455 21.5216L7.09045 23.3534ZM9.18236 19.7065C9.88226 18.6178 10.5246 17.8038 11.1017 17.2267L8.27329 14.3983C7.43374 15.2378 6.61774 16.2989 5.81764 17.5435L9.18236 19.7065ZM11.1415 17.1857C11.4178 16.8932 11.6105 16.7473 11.7165 16.6837C11.822 16.6204 11.7587 16.6875 11.5625 16.6875V12.6875C10.1441 12.6875 9.01324 13.6136 8.23347 14.4393L11.1415 17.1857ZM11.5625 16.6875C11.9681 16.6875 12.5422 16.7855 13.3165 17.0671L14.6835 13.3079C13.6245 12.9228 12.5736 12.6875 11.5625 12.6875V16.6875ZM13.3936 17.0934C14.1618 17.3378 14.9731 17.6952 15.8284 18.1786L17.7966 14.6964C16.7352 14.0964 15.6715 13.6205 14.6064 13.2816L13.3936 17.0934ZM15.9181 18.2264C16.8182 18.6764 17.6824 19.2022 18.5112 19.805L20.8638 16.57C19.8593 15.8395 18.8068 15.1986 17.7069 14.6486L15.9181 18.2264ZM18.5454 19.8293C19.4325 20.4465 20.2077 21.0721 20.8768 21.704L23.6232 18.796C22.7923 18.0112 21.8591 17.2619 20.8296 16.5457L18.5454 19.8293ZM20.9213 21.7448C21.5612 22.3137 22.0393 22.8673 22.3834 23.399L25.7416 21.226C25.169 20.341 24.4388 19.5196 23.5787 18.7552L20.9213 21.7448ZM22.4144 23.4456C22.7449 23.9263 22.8092 24.2126 22.8176 24.33L26.8074 24.045C26.7325 22.9957 26.2967 22.032 25.7106 21.1794L22.4144 23.4456ZM49.3125 24.1875L51.3081 24.0545L51.3074 24.045L49.3125 24.1875ZM49.0625 27L47.0897 26.6712L47.0844 26.7034L47.08 26.7357L49.0625 27ZM46.5625 34.0625L44.9207 32.9204L44.9153 32.9281L44.91 32.9358L46.5625 34.0625ZM42.0625 30.125L40.0779 30.3731L40.0793 30.3837L42.0625 30.125ZM41.6875 27.25L39.6957 27.4311L39.6998 27.4758L39.7058 27.5202L41.6875 27.25ZM41.4375 24.75L39.4403 24.8551L39.4433 24.9131L39.4497 24.9709L41.4375 24.75ZM41.3125 23L43.3003 22.7791L43.2465 22.2955L42.9766 21.8906L41.3125 23ZM40.375 22.25L39.2281 23.8885L39.3194 23.9524L39.4173 24.0058L40.375 22.25ZM37.875 22.875L36.2863 21.6601L36.2631 21.6904L36.2411 21.7216L37.875 22.875ZM35.3125 28.25L37.2184 28.8564L37.2222 28.8444L37.2258 28.8323L35.3125 28.25ZM34.9375 30.375H36.9375V30.2918L36.9306 30.2089L34.9375 30.375ZM35.875 32.125L34.275 33.325L34.2937 33.35L34.3133 33.3744L35.875 32.125ZM41.4375 38.75L39.9089 40.0397L39.919 40.0517L39.9293 40.0636L41.4375 38.75ZM47 46.3125L45.2635 47.3048L47 46.3125ZM48.0625 49.3125L46.065 49.4124L46.0667 49.4455L46.0694 49.4786L48.0625 49.3125ZM47.375 53.1875L45.4827 52.5401L45.4775 52.5553L45.4726 52.5705L47.375 53.1875ZM45.4375 57.6875L43.6798 56.7333L45.4375 57.6875ZM42.875 61.5L41.3482 60.2081L41.3436 60.2136L42.875 61.5ZM40.5 63.125L40.3826 61.1285L40.3507 61.1303L40.3189 61.1332L40.5 63.125ZM38.6875 62.5L39.7304 60.7934L39.695 60.7718L39.6588 60.7517L38.6875 62.5ZM33.5625 58.5L32.1483 59.9142L32.1819 59.9479L32.2172 59.9799L33.5625 58.5ZM31.0625 55.9375L29.5759 57.2754L29.5939 57.2955L29.6125 57.315L31.0625 55.9375ZM29.125 53.6875L27.4911 54.8409L27.5301 54.8962L27.5728 54.9487L29.125 53.6875ZM28.25 52.125L30.1903 51.6399L30.1717 51.5654L30.1474 51.4925L28.25 52.125ZM27.9375 50.125H25.9375V50.175L25.94 50.2249L27.9375 50.125ZM28.0625 47.625L26.0846 47.3283L26.0781 47.3719L26.0735 47.4156L28.0625 47.625ZM28.5 45.5L26.6026 44.8675L26.5889 44.9088L26.577 44.9506L28.5 45.5ZM30.25 45.375L28.7232 46.6669L28.7511 46.6998L28.7804 46.7316L30.25 45.375ZM33.9375 50.1875L32.3055 51.3435L32.3331 51.3825L32.3625 51.4201L33.9375 50.1875ZM37.875 55L36.4094 56.3609L36.4346 56.388L36.4608 56.4142L37.875 55ZM39.1875 55.75V53.75H39.063L38.9394 53.7654L39.1875 55.75ZM40 55.1875L41.5787 56.4154L41.6096 56.3757L41.6385 56.3344L40 55.1875ZM40.8125 53.75L42.6284 54.5881L42.64 54.5631L42.6508 54.5378L40.8125 53.75ZM41.4375 52L39.5145 51.4506L41.4375 52ZM41.6875 50.625H43.6875V50.5418L43.6806 50.4589L41.6875 50.625ZM40.4375 48.5L38.8625 49.7326L38.8923 49.7707L38.9239 49.8072L40.4375 48.5ZM37.5625 45.3125L36.0987 46.6753L36.123 46.7015L36.1483 46.7267L37.5625 45.3125ZM33.875 41.5625L32.4608 42.9767L32.472 42.9879L32.4834 42.999L33.875 41.5625ZM30.1875 37.875L28.7237 39.2378L28.748 39.264L28.7733 39.2892L30.1875 37.875ZM27.3125 34.625L25.7375 35.8576L25.7538 35.8784L25.7706 35.8988L27.3125 34.625ZM26.5625 30.125L28.4673 30.7346L28.4708 30.7239L28.4741 30.7132L26.5625 30.125ZM27.875 26.5L26.0427 25.6984L26.0321 25.7227L26.0221 25.7472L27.875 26.5ZM34.1875 15.8125L35.6017 17.2267L35.6219 17.2065L35.6415 17.1857L34.1875 15.8125ZM38.5 15.1875L37.8165 17.0671L37.8548 17.081L37.8936 17.0934L38.5 15.1875ZM41.3125 16.4375L40.3284 18.1786L40.3726 18.2036L40.4181 18.2264L41.3125 16.4375ZM44.1875 18.1875L43.0112 19.805L43.0281 19.8173L43.0454 19.8293L44.1875 18.1875ZM46.75 20.25L45.3768 21.704L45.3987 21.7248L45.4213 21.7448L46.75 20.25ZM48.5625 22.3125L46.8834 23.399L46.8986 23.4225L46.9144 23.4456L48.5625 22.3125ZM47.3169 24.3205C47.3425 24.7036 47.2929 25.4519 47.0897 26.6712L51.0353 27.3288C51.2487 26.0481 51.3659 24.9214 51.3081 24.0545L47.3169 24.3205ZM47.08 26.7357C46.9308 27.8551 46.6687 28.9819 46.2901 30.1175L50.0849 31.3825C50.5397 30.0181 50.8609 28.6449 51.045 27.2643L47.08 26.7357ZM46.2901 30.1175C45.9262 31.2092 45.4653 32.1375 44.9207 32.9204L48.2043 35.2046C48.9931 34.0708 49.6154 32.7908 50.0849 31.3825L46.2901 30.1175ZM44.91 32.9358C44.7097 33.2297 44.5574 33.3534 44.4825 33.4005C44.4255 33.4363 44.402 33.4375 44.375 33.4375V37.4375C46.0796 37.4375 47.3537 36.4523 48.215 35.1892L44.91 32.9358ZM44.375 33.4375C44.4743 33.4375 44.5827 33.453 44.6912 33.4882C44.7991 33.5232 44.886 33.5707 44.9502 33.6161C45.0717 33.7018 45.0875 33.7611 45.0401 33.6798L41.5849 35.6952C42.0789 36.5421 42.9838 37.4375 44.375 37.4375V33.4375ZM45.0401 33.6798C44.8684 33.3856 44.6764 32.9239 44.4966 32.241L40.6284 33.259C40.8653 34.1595 41.1732 34.9894 41.5849 35.6952L45.0401 33.6798ZM44.4966 32.241C44.3134 31.5448 44.1616 30.7549 44.0457 29.8663L40.0793 30.3837C40.2134 31.4118 40.3949 32.3719 40.6284 33.259L44.4966 32.241ZM44.0471 29.8769C43.9212 28.8702 43.7953 27.9044 43.6692 26.9798L39.7058 27.5202C39.8297 28.4289 39.9538 29.3798 40.0779 30.3731L44.0471 29.8769ZM43.6793 27.0689C43.595 26.1417 43.5104 25.2949 43.4253 24.5291L39.4497 24.9709C39.5313 25.7051 39.6133 26.5249 39.6957 27.4311L43.6793 27.0689ZM43.4347 24.6449C43.3927 23.8469 43.3487 23.2151 43.3003 22.7791L39.3247 23.2209C39.3596 23.5349 39.3989 24.0698 39.4403 24.8551L43.4347 24.6449ZM42.9766 21.8906C42.5429 21.24 41.894 20.8004 41.3327 20.4942L39.4173 24.0058C39.5729 24.0906 39.6615 24.153 39.7037 24.1867C39.7492 24.2231 39.7099 24.2017 39.6484 24.1094L42.9766 21.8906ZM41.5219 20.6115C40.9347 20.2005 40.1577 19.8125 39.25 19.8125V23.8125C39.1232 23.8125 39.0534 23.7847 39.0564 23.7859C39.0574 23.7863 39.0728 23.7924 39.1029 23.8091C39.1331 23.8257 39.1747 23.8511 39.2281 23.8885L41.5219 20.6115ZM39.25 19.8125C38.4365 19.8125 37.8017 20.1868 37.4021 20.4956C36.9827 20.8196 36.6124 21.2336 36.2863 21.6601L39.4637 24.0899C39.5664 23.9556 39.6527 23.8546 39.722 23.7809C39.7925 23.706 39.8347 23.6709 39.8479 23.6607C39.8629 23.6491 39.8252 23.6814 39.7354 23.7196C39.6423 23.7591 39.4747 23.8125 39.25 23.8125V19.8125ZM36.2411 21.7216C35.6637 22.5396 35.1297 23.474 34.6332 24.5121L38.2418 26.2379C38.662 25.3593 39.0863 24.6271 39.5089 24.0284L36.2411 21.7216ZM34.6332 24.5121C34.1341 25.5557 33.7218 26.6076 33.3992 27.6677L37.2258 28.8323C37.4866 27.9757 37.8242 27.111 38.2418 26.2379L34.6332 24.5121ZM33.4066 27.6436C33.095 28.6232 32.8692 29.6384 32.9444 30.5411L36.9306 30.2089C36.9225 30.1116 36.9467 29.7101 37.2184 28.8564L33.4066 27.6436ZM32.9375 30.375C32.9375 31.0608 33.2219 31.6578 33.4089 32.0069C33.632 32.4233 33.932 32.8677 34.275 33.325L37.475 30.925C37.193 30.549 37.0243 30.285 36.9348 30.1181C36.8909 30.036 36.8829 30.0084 36.8891 30.0265C36.8918 30.0343 36.9375 30.1638 36.9375 30.375H32.9375ZM34.3133 33.3744C34.9966 34.2285 35.823 35.2242 36.79 36.3594L39.835 33.7656C38.8853 32.6508 38.0868 31.6881 37.4367 30.8756L34.3133 33.3744ZM36.79 36.3594C37.746 37.4817 38.7856 38.7084 39.9089 40.0397L42.9661 37.4603C41.8394 36.1249 40.7957 34.8933 39.835 33.7656L36.79 36.3594ZM39.9293 40.0636C41.0223 41.3184 42.031 42.5695 42.9563 43.8167L46.1687 41.4333C45.1774 40.0972 44.1027 38.7649 42.9457 37.4364L39.9293 40.0636ZM42.9563 43.8167C43.8762 45.0565 44.643 46.219 45.2635 47.3048L48.7365 45.3202C48.0236 44.0727 47.1655 42.7768 46.1687 41.4333L42.9563 43.8167ZM45.2635 47.3048C45.8591 48.347 46.0458 49.0278 46.065 49.4124L50.06 49.2126C49.9959 47.9305 49.4743 46.6114 48.7365 45.3202L45.2635 47.3048ZM46.0694 49.4786C46.1194 50.0791 45.9869 51.0663 45.4827 52.5401L49.2673 53.8349C49.8465 52.142 50.1722 50.5459 50.0556 49.1464L46.0694 49.4786ZM45.4726 52.5705C45.0113 53.9928 44.4144 55.3801 43.6798 56.7333L47.1952 58.6417C48.044 57.0782 48.7387 55.4655 49.2774 53.8045L45.4726 52.5705ZM43.6798 56.7333C42.9427 58.0911 42.1632 59.2449 41.3482 60.2081L44.4018 62.7919C45.4201 61.5884 46.349 60.2005 47.1952 58.6417L43.6798 56.7333ZM41.3436 60.2136C40.9784 60.6483 40.6935 60.9015 40.4956 61.0369C40.2976 61.1724 40.2683 61.1352 40.3826 61.1285L40.6174 65.1215C42.2028 65.0283 43.4676 63.904 44.4064 62.7864L41.3436 60.2136ZM40.3189 61.1332C40.4585 61.1205 40.487 61.1548 40.3551 61.1093C40.2297 61.066 40.0245 60.9732 39.7304 60.7934L37.6446 64.2066C38.4762 64.7147 39.5517 65.2195 40.6811 65.1168L40.3189 61.1332ZM39.6588 60.7517C39.0355 60.4054 38.3195 59.9147 37.5084 59.258L34.9916 62.367C35.9305 63.127 36.8395 63.7612 37.7162 64.2483L39.6588 60.7517ZM37.5084 59.258C36.6659 58.576 35.799 57.8303 34.9078 57.0201L32.2172 59.9799C33.1593 60.8364 34.0841 61.6324 34.9916 62.367L37.5084 59.258ZM34.9767 57.0858C34.1129 56.222 33.2915 55.38 32.5125 54.56L29.6125 57.315C30.4168 58.1616 31.2621 59.028 32.1483 59.9142L34.9767 57.0858ZM32.5491 54.5996C31.8152 53.7842 31.1924 53.0604 30.6772 52.4263L27.5728 54.9487C28.1409 55.6479 28.8098 56.4241 29.5759 57.2754L32.5491 54.5996ZM30.7589 52.5341C30.5328 52.2138 30.3768 51.9679 30.2763 51.7884C30.1634 51.5869 30.1687 51.5534 30.1903 51.6399L26.3097 52.6101C26.4946 53.3495 27.0018 54.1477 27.4911 54.8409L30.7589 52.5341ZM30.1474 51.4925C30.0614 51.2346 29.9722 50.7695 29.935 50.0251L25.94 50.2249C25.9861 51.1472 26.1053 52.0154 26.3526 52.7575L30.1474 51.4925ZM29.9375 50.125C29.9375 49.3132 29.9762 48.5501 30.0515 47.8344L26.0735 47.4156C25.9822 48.2833 25.9375 49.1868 25.9375 50.125H29.9375ZM30.0404 47.9217C30.1571 47.1435 30.2872 46.5249 30.423 46.0494L26.577 44.9506C26.3795 45.6418 26.2179 46.4398 26.0846 47.3283L30.0404 47.9217ZM30.3974 46.1325C30.4687 45.9183 30.4925 45.9375 30.4055 46.0463C30.3539 46.1107 30.2378 46.2385 30.0385 46.3535C29.825 46.4767 29.5532 46.5625 29.25 46.5625V42.5625C28.2916 42.5625 27.6367 43.1041 27.282 43.5475C26.945 43.9688 26.7396 44.4567 26.6026 44.8675L30.3974 46.1325ZM29.25 46.5625C28.8832 46.5625 28.6286 46.4488 28.5353 46.4021C28.4308 46.3499 28.382 46.3073 28.3951 46.3179C28.4028 46.3242 28.4363 46.3527 28.4972 46.4153C28.5567 46.4763 28.6317 46.5588 28.7232 46.6669L31.7768 44.0831C31.5119 43.7701 31.2224 43.4612 30.9174 43.2134C30.709 43.044 30.0995 42.5625 29.25 42.5625V46.5625ZM28.7804 46.7316C29.2198 47.2076 29.7381 47.8383 30.3375 48.6375L33.5375 46.2375C32.8869 45.37 32.2802 44.6257 31.7196 44.0184L28.7804 46.7316ZM30.3375 48.6375C30.9499 49.4541 31.6058 50.3558 32.3055 51.3435L35.5695 49.0315C34.8525 48.0192 34.1751 47.0876 33.5375 46.2375L30.3375 48.6375ZM32.3625 51.4201C33.1163 52.3833 33.8291 53.2848 34.5008 54.1244L37.6242 51.6256C36.9626 50.7986 36.2587 49.9084 35.5125 48.9549L32.3625 51.4201ZM34.5008 54.1244C35.1885 54.9841 35.8253 55.7319 36.4094 56.3609L39.3406 53.6391C38.8414 53.1015 38.2698 52.4326 37.6242 51.6256L34.5008 54.1244ZM36.4608 56.4142C36.7993 56.7527 37.1861 57.084 37.6171 57.3302C38.033 57.5679 38.6725 57.8299 39.4356 57.7346L38.9394 53.7654C39.1575 53.7382 39.3318 53.7666 39.4398 53.7958C39.5442 53.8241 39.5998 53.8562 39.6017 53.8573C39.605 53.8592 39.5778 53.8437 39.5192 53.7963C39.4617 53.7498 39.3851 53.6817 39.2892 53.5858L36.4608 56.4142ZM39.1875 57.75C40.4315 57.75 41.2239 56.8716 41.5787 56.4154L38.4213 53.9596C38.3501 54.0512 38.3521 54.0257 38.4397 53.965C38.5338 53.8999 38.7944 53.75 39.1875 53.75V57.75ZM41.6385 56.3344C42.0088 55.8053 42.3369 55.2198 42.6284 54.5881L38.9966 52.9119C38.7881 53.3635 38.5745 53.7363 38.3615 54.0406L41.6385 56.3344ZM42.6508 54.5378C42.9325 53.8805 43.1697 53.2176 43.3605 52.5494L39.5145 51.4506C39.372 51.9491 39.1925 52.4529 38.9742 52.9622L42.6508 54.5378ZM43.3605 52.5494C43.5438 51.9081 43.6875 51.2378 43.6875 50.625H39.6875C39.6875 50.635 39.6852 50.7072 39.6573 50.861C39.6302 51.0097 39.5848 51.2043 39.5145 51.4506L43.3605 52.5494ZM43.6806 50.4589C43.6238 49.7776 43.3426 49.1722 43.0676 48.7047C42.7769 48.2105 42.3925 47.7038 41.9511 47.1928L38.9239 49.8072C39.2742 50.2129 39.4939 50.5187 39.6199 50.7328C39.7616 50.9737 39.7095 50.9724 39.6944 50.7911L43.6806 50.4589ZM42.0125 47.2674C41.1987 46.2275 40.182 45.1035 38.9767 43.8983L36.1483 46.7267C37.2764 47.8548 38.1763 48.8559 38.8625 49.7326L42.0125 47.2674ZM39.0263 43.9497C37.8752 42.7133 36.6216 41.4387 35.2666 40.126L32.4834 42.999C33.795 44.2696 34.9998 45.495 36.0987 46.6753L39.0263 43.9497ZM35.2892 40.1483C34.8657 39.7248 34.7479 39.6069 34.3322 39.1913C34.3278 39.1869 34.3218 39.1809 34.3174 39.1765C34.313 39.1721 34.307 39.1661 34.3027 39.1617C34.3002 39.1593 34.2977 39.1568 34.2953 39.1543C34.2928 39.1519 34.2904 39.1494 34.2879 39.147C34.2854 39.1445 34.283 39.1421 34.2805 39.1396C34.2781 39.1371 34.2756 39.1347 34.2731 39.1322C34.2707 39.1298 34.2682 39.1273 34.2658 39.1248C34.2633 39.1224 34.2609 39.1199 34.2584 39.1175C34.2559 39.115 34.2535 39.1126 34.251 39.1101C34.2486 39.1076 34.2461 39.1052 34.2437 39.1027C34.2412 39.1003 34.2388 39.0978 34.2363 39.0954C34.2338 39.0929 34.2314 39.0905 34.2289 39.088C34.2265 39.0855 34.224 39.0831 34.2216 39.0806C34.2191 39.0782 34.2167 39.0757 34.2142 39.0733C34.2117 39.0708 34.2093 39.0684 34.2068 39.0659C34.2044 39.0635 34.2019 39.061 34.1995 39.0586C34.1951 39.0542 34.1891 39.0482 34.1848 39.0438C34.1804 39.0395 34.1744 39.0335 34.1701 39.0291C34.1657 39.0248 34.1597 39.0188 34.1553 39.0144C34.151 39.0101 34.145 39.0041 34.1406 38.9997C34.1363 38.9954 34.1303 38.9894 34.126 38.985C34.1216 38.9807 34.1156 38.9747 34.1113 38.9703C34.1069 38.966 34.1009 38.96 34.0966 38.9557C34.0792 38.9383 34.0553 38.9144 34.0379 38.897C34.0336 38.8926 34.0276 38.8867 34.0233 38.8823C34.0189 38.878 34.013 38.872 34.0086 38.8677C34.0043 38.8633 33.9983 38.8574 33.994 38.853C33.9853 38.8444 33.988 38.8471 33.9793 38.8384C33.9707 38.8297 33.9734 38.8324 33.9647 38.8238C33.9474 38.8064 33.9674 38.8265 33.9501 38.8092C33.9328 38.7918 33.9528 38.8119 33.9355 38.7945C33.9181 38.7772 33.9382 38.7972 33.9209 38.7799C33.9122 38.7713 33.9003 38.7594 33.8916 38.7507C33.883 38.7421 33.8857 38.7448 33.877 38.7361C33.8684 38.7275 33.8711 38.7302 33.8625 38.7215C33.7238 38.5828 33.5353 38.3944 33.3986 38.2577C33.3815 38.2405 33.3005 38.1596 33.2835 38.1426C33.2665 38.1256 33.1858 38.0449 33.1689 38.0279C33.1265 37.9855 33.154 38.0131 33.1116 37.9707C33.0693 37.9284 33.0968 37.9559 33.0545 37.9136C33.0123 37.8714 33.0397 37.8988 32.9975 37.8566C32.9806 37.8397 32.9859 37.845 32.969 37.8281C32.9585 37.8176 32.9653 37.8244 32.9548 37.8139C32.9524 37.8115 32.9501 37.8091 32.9477 37.8068C32.9453 37.8044 32.943 37.802 32.9406 37.7997C32.9237 37.7828 32.8438 37.7028 32.827 37.6861C32.8101 37.6692 32.7305 37.5896 32.7138 37.5728C32.6719 37.531 32.6991 37.5582 32.6573 37.5164C32.6155 37.4746 32.6427 37.5018 32.6009 37.46C32.5842 37.4433 32.505 37.3641 32.4884 37.3475C32.4718 37.3308 32.3929 37.2519 32.3763 37.2354C32.3597 37.2187 32.2811 37.1401 32.2646 37.1236C32.1651 37.0241 32.1411 37.0002 32.0421 36.9012C32.0092 36.8683 31.8537 36.7127 31.8212 36.6803C31.7885 36.6476 31.6339 36.493 31.6017 36.4608L28.7733 39.2892C29.2845 39.8004 30.0277 40.5437 30.5702 41.0861C30.5872 41.1031 30.6684 41.1844 30.6856 41.2015C30.7027 41.2186 30.7842 41.3001 30.8014 41.3173C30.8185 41.3344 30.9003 41.4162 30.9175 41.4334C30.9692 41.4852 30.924 41.4399 30.9757 41.4917C31.0275 41.5435 30.9822 41.4981 31.034 41.55C31.1722 41.6881 31.3636 41.8796 31.5038 42.0197C31.6614 42.1773 31.8198 42.3357 31.9793 42.4953C32.0858 42.6017 32.1124 42.6283 32.2193 42.7353C32.246 42.7619 32.3131 42.829 32.3399 42.8558C32.3667 42.8827 32.4338 42.9497 32.4608 42.9767L35.2892 40.1483ZM31.6513 36.5122C30.5451 35.324 29.6143 34.2711 28.8544 33.3512L25.7706 35.8988C26.594 36.8955 27.5799 38.0093 28.7237 39.2378L31.6513 36.5122ZM28.8875 33.3924C28.5525 32.9643 28.3374 32.6384 28.2108 32.4052C28.0697 32.1452 28.1057 32.1222 28.1181 32.2714L24.1319 32.6036C24.186 33.2528 24.4407 33.8444 24.6954 34.3136C24.9647 34.8095 25.3225 35.3273 25.7375 35.8576L28.8875 33.3924ZM28.1181 32.2714C28.1182 32.2724 28.1123 32.152 28.1683 31.8562C28.2214 31.5755 28.3167 31.2053 28.4673 30.7346L24.6577 29.5154C24.3166 30.5814 24.0549 31.6792 24.1319 32.6036L28.1181 32.2714ZM28.4741 30.7132C28.7864 29.698 29.2027 28.5457 29.7279 27.2528L26.0221 25.7472C25.464 27.1209 25.0052 28.3853 24.6509 29.5368L28.4741 30.7132ZM29.7073 27.3016C30.2727 26.0093 30.9002 24.6932 31.5904 23.3534L28.0346 21.5216C27.3081 22.9318 26.6439 24.3241 26.0427 25.6984L29.7073 27.3016ZM31.5904 23.3534C32.2729 22.0288 32.9705 20.8138 33.6824 19.7065L30.3176 17.5435C29.5295 18.7695 28.7688 20.0962 28.0346 21.5216L31.5904 23.3534ZM33.6824 19.7065C34.3823 18.6178 35.0246 17.8038 35.6017 17.2267L32.7733 14.3983C31.9337 15.2378 31.1177 16.2989 30.3176 17.5435L33.6824 19.7065ZM35.6415 17.1857C35.9178 16.8932 36.1105 16.7473 36.2165 16.6837C36.322 16.6204 36.2587 16.6875 36.0625 16.6875V12.6875C34.6441 12.6875 33.5132 13.6136 32.7335 14.4393L35.6415 17.1857ZM36.0625 16.6875C36.4681 16.6875 37.0422 16.7855 37.8165 17.0671L39.1835 13.3079C38.1245 12.9228 37.0736 12.6875 36.0625 12.6875V16.6875ZM37.8936 17.0934C38.6618 17.3378 39.4731 17.6952 40.3284 18.1786L42.2966 14.6964C41.2352 14.0964 40.1715 13.6205 39.1064 13.2816L37.8936 17.0934ZM40.4181 18.2264C41.3182 18.6764 42.1824 19.2022 43.0112 19.805L45.3638 16.57C44.3593 15.8395 43.3068 15.1986 42.2069 14.6486L40.4181 18.2264ZM43.0454 19.8293C43.9325 20.4465 44.7077 21.0721 45.3768 21.704L48.1232 18.796C47.2923 18.0112 46.3591 17.2619 45.3296 16.5457L43.0454 19.8293ZM45.4213 21.7448C46.0612 22.3137 46.5393 22.8673 46.8834 23.399L50.2416 21.226C49.669 20.341 48.9388 19.5196 48.0787 18.7552L45.4213 21.7448ZM46.9144 23.4456C47.2449 23.9263 47.3092 24.2126 47.3176 24.33L51.3074 24.045C51.2325 22.9957 50.7967 22.032 50.2106 21.1794L46.9144 23.4456Z" fill="black" mask="url(#path-1-outside-1_172_79)"/>
<path d="M3 26C3 26 21.6932 30.5 27.0341 26C32.375 21.5 50 26 50 26" stroke="black"/>
<path d="M6 40C6 40 21.1136 44.5 25.4318 40C29.75 35.5 44 40 44 40" stroke="black"/>
<path d="M13 47C13 47 26.9205 51.5 30.8977 47C34.875 42.5 48 47 48 47" stroke="black"/>
<path d="M13 54C13 54 26.9205 58.5 30.8977 54C34.875 49.5 48 54 48 54" stroke="black"/>
<path d="M1 34C1 34 19.2955 38.5 24.5227 34C29.75 29.5 47 34 47 34" stroke="black"/>
</svg>
